# Blender v2.77 (sub 0) OBJ File: 'number.blend'
# www.blender.org
mtllib up.mtl
o Cube_Cube.001
v 0.003168 0.010233 0.052504
v 0.003168 0.320143 0.052504
v 0.003168 0.010233 -0.052504
v 0.003168 0.320143 -0.052504
v 0.131393 0.010233 0.052504
v 0.131393 0.320143 0.052504
v 0.131393 0.010233 -0.052504
v 0.131393 0.320143 -0.052504
v -0.079866 0.320143 0.058783
v -0.079866 0.320143 -0.058783
v 0.214426 0.320143 0.058783
v 0.214426 0.320143 -0.058783
v 0.067280 0.581156 0.058783
v 0.067280 0.581156 -0.058783
v 0.067280 0.581156 0.058783
v 0.067280 0.581156 -0.058783
vn -1.0000 0.0000 0.0000
vn 0.0000 0.0000 -1.0000
vn 1.0000 0.0000 0.0000
vn 0.0000 0.0000 1.0000
vn 0.0000 -1.0000 0.0000
vn 0.8711 0.4911 0.0000
vn -0.8711 0.4911 0.0000
usemtl Material
s off
f 2//1 4//1 3//1 1//1
f 4//2 8//2 7//2 3//2
f 8//3 6//3 5//3 7//3
f 6//4 2//4 1//4 5//4
f 1//5 3//5 7//5 5//5
f 8//5 4//5 10//5 12//5
f 9//4 11//4 15//4 13//4
f 6//5 8//5 12//5 11//5
f 4//5 2//5 9//5 10//5
f 2//5 6//5 11//5 9//5
f 15//4 16//4 14//4 13//4
f 12//2 10//2 14//2 16//2
f 11//6 12//6 16//6 15//6
f 10//7 9//7 13//7 14//7
