# Blender v2.77 (sub 0) OBJ File: ''
# www.blender.org
mtllib 1.mtl
o Text
v 0.057374 0.682000 0.000000
v -0.040626 0.682000 0.000000
v -0.040626 0.000000 0.000000
v 0.057374 0.000000 0.000000
v 0.057374 0.682000 -0.264000
v -0.040626 0.682000 -0.264000
v -0.040626 0.000000 -0.264000
v 0.057374 0.000000 -0.264000
vn 0.0000 -0.0000 1.0000
vn 0.0000 0.0000 -1.0000
vn 1.0000 0.0000 0.0000
vn 0.0000 -1.0000 -0.0000
vn 0.0000 1.0000 0.0000
vn -1.0000 -0.0000 0.0000
usemtl Material.001
s off
f 3//1 1//1 2//1
f 3//1 4//1 1//1
f 6//2 5//2 7//2
f 5//2 8//2 7//2
f 1//3 4//3 8//3 5//3
f 4//4 3//4 7//4 8//4
f 2//5 1//5 5//5 6//5
f 3//6 2//6 6//6 7//6
