# Blender v2.77 (sub 0) OBJ File: ''
# www.blender.org
mtllib 2.mtl
o Text
v 0.223374 0.093000 0.000000
v -0.037626 0.093000 0.000000
v -0.001524 0.136478 0.000000
v 0.030855 0.176657 0.000000
v 0.059624 0.213906 0.000000
v 0.084892 0.248593 0.000000
v 0.106772 0.281085 0.000000
v 0.125374 0.311750 0.000000
v 0.140809 0.340957 0.000000
v 0.153189 0.369074 0.000000
v 0.162624 0.396469 0.000000
v 0.169226 0.423509 0.000000
v 0.173105 0.450564 0.000000
v 0.174374 0.478000 0.000000
v 0.172630 0.508660 0.000000
v 0.167508 0.537528 0.000000
v 0.159171 0.564438 0.000000
v 0.147781 0.589222 0.000000
v 0.133503 0.611715 0.000000
v 0.116499 0.631750 0.000000
v 0.096932 0.649160 0.000000
v 0.074967 0.663778 0.000000
v 0.050765 0.675438 0.000000
v 0.024490 0.683972 0.000000
v -0.003695 0.689215 0.000000
v -0.033626 0.691000 0.000000
v -0.047297 0.690561 0.000000
v -0.060830 0.689241 0.000000
v -0.074251 0.687031 0.000000
v -0.087589 0.683926 0.000000
v -0.100871 0.679918 0.000000
v -0.114126 0.675000 0.000000
v -0.127381 0.669166 0.000000
v -0.140663 0.662407 0.000000
v -0.154001 0.654719 0.000000
v -0.167422 0.646093 0.000000
v -0.180955 0.636522 0.000000
v -0.194626 0.626000 0.000000
v -0.194626 0.503000 0.000000
v -0.180978 0.519515 0.000000
v -0.167524 0.534120 0.000000
v -0.154251 0.546906 0.000000
v -0.141145 0.557963 0.000000
v -0.128191 0.567381 0.000000
v -0.115376 0.575250 0.000000
v -0.102686 0.581661 0.000000
v -0.090108 0.586704 0.000000
v -0.077626 0.590469 0.000000
v -0.065228 0.593046 0.000000
v -0.052899 0.594527 0.000000
v -0.040626 0.595000 0.000000
v -0.024249 0.593914 0.000000
v -0.008695 0.590727 0.000000
v 0.005921 0.585547 0.000000
v 0.019485 0.578481 0.000000
v 0.031883 0.569638 0.000000
v 0.042999 0.559125 0.000000
v 0.052719 0.547049 0.000000
v 0.060929 0.533518 0.000000
v 0.067515 0.518641 0.000000
v 0.072360 0.502523 0.000000
v 0.075351 0.485274 0.000000
v 0.076374 0.467000 0.000000
v 0.076041 0.453204 0.000000
v 0.075041 0.440213 0.000000
v 0.073374 0.427875 0.000000
v 0.071041 0.416037 0.000000
v 0.068041 0.404546 0.000000
v 0.064374 0.393250 0.000000
v 0.060041 0.381995 0.000000
v 0.055041 0.370630 0.000000
v 0.049374 0.359000 0.000000
v 0.043041 0.346954 0.000000
v 0.036041 0.334338 0.000000
v 0.028374 0.321000 0.000000
v 0.012959 0.295763 0.000000
v -0.004112 0.269685 0.000000
v -0.022579 0.242969 0.000000
v -0.042182 0.215815 0.000000
v -0.062659 0.188425 0.000000
v -0.083751 0.161000 0.000000
v -0.105197 0.133742 0.000000
v -0.126737 0.106852 0.000000
v -0.148110 0.080531 0.000000
v -0.169057 0.054981 0.000000
v -0.189315 0.030404 0.000000
v -0.208626 0.007000 0.000000
v -0.208626 0.000000 0.000000
v 0.223374 0.000000 0.000000
v 0.223374 0.093000 -0.264000
v -0.037626 0.093000 -0.264000
v -0.001524 0.136478 -0.264000
v 0.030855 0.176657 -0.264000
v 0.059624 0.213906 -0.264000
v 0.084892 0.248593 -0.263992
v 0.106772 0.281085 -0.264000
v 0.125374 0.311750 -0.264000
v 0.140809 0.340957 -0.263992
v 0.153189 0.369074 -0.264000
v 0.162624 0.396469 -0.264000
v 0.169226 0.423509 -0.264000
v 0.173105 0.450564 -0.264000
v 0.174374 0.478000 -0.264000
v 0.172630 0.508660 -0.264000
v 0.167508 0.537528 -0.264000
v 0.159171 0.564438 -0.263992
v 0.147781 0.589222 -0.264000
v 0.133503 0.611715 -0.264000
v 0.116499 0.631750 -0.264000
v 0.096932 0.649160 -0.263992
v 0.074967 0.663778 -0.264000
v 0.050765 0.675438 -0.264000
v 0.024490 0.683972 -0.264000
v -0.003695 0.689215 -0.264000
v -0.033626 0.691000 -0.264000
v -0.047297 0.690561 -0.263992
v -0.060830 0.689241 -0.264000
v -0.074251 0.687031 -0.264000
v -0.087589 0.683926 -0.264000
v -0.100871 0.679918 -0.264000
v -0.114126 0.675000 -0.264000
v -0.127381 0.669166 -0.263992
v -0.140663 0.662407 -0.264000
v -0.154001 0.654719 -0.264000
v -0.167422 0.646093 -0.263992
v -0.180955 0.636522 -0.264000
v -0.194626 0.626000 -0.264000
v -0.194626 0.503000 -0.264000
v -0.180978 0.519515 -0.264000
v -0.167524 0.534120 -0.264000
v -0.154251 0.546906 -0.264000
v -0.141145 0.557963 -0.264000
v -0.128191 0.567381 -0.263992
v -0.115376 0.575250 -0.264000
v -0.102686 0.581661 -0.264000
v -0.090108 0.586704 -0.264000
v -0.077626 0.590469 -0.264000
v -0.065228 0.593046 -0.264000
v -0.052899 0.594527 -0.264000
v -0.040626 0.595000 -0.264000
v -0.024249 0.593914 -0.264000
v -0.008695 0.590727 -0.264000
v 0.005921 0.585547 -0.263992
v 0.019485 0.578481 -0.264000
v 0.031883 0.569638 -0.264000
v 0.042999 0.559125 -0.263992
v 0.052719 0.547049 -0.264000
v 0.060929 0.533518 -0.264000
v 0.067515 0.518641 -0.264000
v 0.072360 0.502523 -0.264000
v 0.075351 0.485274 -0.263992
v 0.076374 0.467000 -0.264000
v 0.076041 0.453204 -0.263992
v 0.075041 0.440213 -0.264000
v 0.073374 0.427875 -0.264000
v 0.071041 0.416037 -0.264000
v 0.068041 0.404546 -0.264000
v 0.064374 0.393250 -0.264000
v 0.060041 0.381995 -0.264000
v 0.055041 0.370630 -0.264000
v 0.049374 0.359000 -0.264000
v 0.043041 0.346954 -0.264000
v 0.036041 0.334338 -0.264000
v 0.028374 0.321000 -0.264000
v 0.012959 0.295763 -0.264000
v -0.004112 0.269685 -0.264000
v -0.022579 0.242969 -0.263992
v -0.042182 0.215815 -0.264000
v -0.062659 0.188425 -0.264000
v -0.083751 0.161000 -0.264000
v -0.105197 0.133742 -0.264000
v -0.126737 0.106852 -0.263992
v -0.148110 0.080531 -0.264000
v -0.169057 0.054981 -0.264000
v -0.189315 0.030404 -0.263992
v -0.208626 0.007000 -0.264000
v -0.208626 0.000000 -0.264000
v 0.223374 0.000000 -0.264000
vn 0.0000 -0.0000 1.0000
vn -0.0004 -0.0064 -1.0000
vn 0.0000 0.0061 -1.0000
vn 0.0000 0.0000 -1.0000
vn -0.0001 -0.0012 -1.0000
vn -0.0000 0.0012 -1.0000
vn 0.0000 -0.0005 -1.0000
vn 0.0000 -0.0001 -1.0000
vn 0.0000 -0.0010 -1.0000
vn -0.0000 0.0005 -1.0000
vn 0.0000 0.0008 -1.0000
vn 0.0004 0.0003 -1.0000
vn -0.0003 -0.0005 -1.0000
vn -0.0000 -0.0016 -1.0000
vn -0.0000 -0.0003 -1.0000
vn 0.0002 0.0016 -1.0000
vn 0.0001 0.0001 -1.0000
vn 0.0000 -0.0007 -1.0000
vn -0.0000 0.0003 -1.0000
vn 0.0001 0.0007 -1.0000
vn -0.0001 -0.0005 -1.0000
vn -0.0000 0.0004 -1.0000
vn -0.0001 -0.0006 -1.0000
vn -0.0001 0.0006 -1.0000
vn 0.0001 -0.0000 -1.0000
vn 0.0001 0.0002 -1.0000
vn -0.0000 0.0002 -1.0000
vn -0.0001 -0.0002 -1.0000
vn -0.0321 0.9995 0.0000
vn 0.9989 -0.0462 0.0000
vn -0.9676 0.2526 0.0000
vn -0.9997 0.0242 0.0000
vn 0.9846 0.1747 0.0000
vn -0.2007 -0.9796 0.0000
vn -0.6099 0.7925 0.0000
vn -0.2889 0.9574 0.0000
vn 0.0385 -0.9993 0.0000
vn 0.5540 0.8325 0.0000
vn 0.7708 -0.6370 0.0000
vn -0.8108 0.5853 0.0000
vn 0.5233 -0.8522 0.0000
vn 0.3089 0.9511 0.0000
vn -0.7859 0.6183 0.0000
vn 0.8083 -0.5888 -0.0000
vn -0.8851 0.4654 0.0000
vn 0.6448 -0.7643 0.0000
vn -0.5407 0.8412 0.0000
vn -0.4029 0.9153 0.0000
vn 0.8550 -0.5186 0.0000
vn -0.8670 0.4983 0.0000
vn -0.9577 -0.2879 0.0000
vn -0.7713 0.6364 0.0000
vn -0.9910 0.1339 0.0000
vn 0.7624 0.6471 0.0000
vn -0.8367 0.5477 0.0000
vn -0.8549 -0.5187 0.0000
vn 0.3721 -0.9282 0.0000
vn 0.9899 -0.1419 0.0000
vn 0.7786 -0.6275 -0.0000
vn -0.9153 0.4027 0.0000
vn 0.9455 -0.3256 0.0000
vn -0.4535 0.8913 0.0000
vn -0.9984 -0.0559 0.0000
vn -0.7733 0.6340 0.0000
vn 0.9087 0.4176 0.0000
vn 0.2035 -0.9791 0.0000
vn -0.0971 0.9953 0.0000
vn 0.9984 0.0568 0.0000
vn -0.3340 -0.9426 0.0000
vn 0.0000 1.0000 0.0000
vn -0.9511 0.3087 0.0000
vn -1.0000 0.0000 0.0000
vn -0.8534 0.5213 0.0000
vn -0.5807 -0.8141 0.0000
vn -0.9971 0.0768 0.0000
vn 0.4340 0.9009 0.0000
vn 0.0595 0.9982 0.0000
vn 0.9552 0.2959 0.0000
vn -0.0662 -0.9978 0.0000
vn 0.7355 -0.6775 0.0000
vn 0.8295 -0.5586 -0.0000
vn -0.7927 0.6096 0.0000
vn -0.2268 0.9740 0.0000
vn 0.5880 -0.8088 0.0000
vn 0.1829 0.9831 0.0000
vn -0.7805 0.6252 0.0000
vn -0.5774 0.8164 0.0000
vn -0.3479 0.9375 0.0000
vn 1.0000 0.0000 0.0000
vn -0.8744 0.4852 0.0000
vn 0.1192 -0.9929 0.0000
vn -0.4994 0.8664 0.0000
vn -0.8009 0.5988 0.0000
vn 0.8841 -0.4672 0.0000
vn -0.9144 -0.4047 0.0000
vn -0.9811 0.1934 0.0000
vn 0.6647 0.7471 0.0000
vn 0.9715 -0.2372 0.0000
vn -0.8226 0.5686 0.0000
vn 0.8443 0.5359 0.0000
vn 0.6938 -0.7202 0.0000
vn 0.0000 -1.0000 -0.0000
vn -0.4620 -0.8869 0.0000
vn 0.7914 -0.6113 -0.0000
vn 0.7693 -0.6388 -0.0000
vn -0.7790 -0.6270 0.0000
vn -0.7716 0.6361 0.0000
vn 0.4509 -0.8926 0.0000
vn 0.9152 -0.4030 0.0000
vn -0.8990 0.4380 0.0000
vn -0.7763 0.6304 0.0000
vn 0.2888 -0.9574 0.0000
vn -0.1624 0.9867 0.0000
vn -0.6871 -0.7265 0.0000
vn -0.9332 0.3593 0.0000
vn -0.9853 -0.1709 0.0000
usemtl Material.001
s off
f 27//1 25//1 26//1
f 28//1 25//1 27//1
f 29//1 25//1 28//1
f 29//1 24//1 25//1
f 30//1 24//1 29//1
f 30//1 23//1 24//1
f 31//1 23//1 30//1
f 32//1 23//1 31//1
f 32//1 22//1 23//1
f 33//1 22//1 32//1
f 34//1 22//1 33//1
f 34//1 21//1 22//1
f 35//1 21//1 34//1
f 36//1 21//1 35//1
f 36//1 20//1 21//1
f 37//1 20//1 36//1
f 38//1 20//1 37//1
f 38//1 19//1 20//1
f 39//1 40//1 38//1
f 40//1 41//1 38//1
f 41//1 42//1 38//1
f 42//1 43//1 38//1
f 43//1 44//1 38//1
f 44//1 45//1 38//1
f 45//1 46//1 38//1
f 46//1 47//1 38//1
f 47//1 48//1 38//1
f 48//1 49//1 38//1
f 49//1 50//1 38//1
f 50//1 19//1 38//1
f 50//1 51//1 19//1
f 51//1 18//1 19//1
f 52//1 18//1 51//1
f 53//1 18//1 52//1
f 54//1 18//1 53//1
f 54//1 17//1 18//1
f 55//1 17//1 54//1
f 56//1 17//1 55//1
f 57//1 17//1 56//1
f 57//1 16//1 17//1
f 58//1 16//1 57//1
f 59//1 16//1 58//1
f 59//1 15//1 16//1
f 60//1 15//1 59//1
f 61//1 15//1 60//1
f 61//1 14//1 15//1
f 62//1 14//1 61//1
f 63//1 14//1 62//1
f 63//1 13//1 14//1
f 64//1 13//1 63//1
f 65//1 13//1 64//1
f 65//1 12//1 13//1
f 66//1 12//1 65//1
f 67//1 12//1 66//1
f 67//1 11//1 12//1
f 68//1 11//1 67//1
f 69//1 11//1 68//1
f 69//1 10//1 11//1
f 70//1 10//1 69//1
f 71//1 10//1 70//1
f 72//1 10//1 71//1
f 72//1 9//1 10//1
f 73//1 9//1 72//1
f 74//1 9//1 73//1
f 74//1 8//1 9//1
f 75//1 8//1 74//1
f 76//1 8//1 75//1
f 76//1 7//1 8//1
f 77//1 7//1 76//1
f 77//1 6//1 7//1
f 78//1 6//1 77//1
f 78//1 5//1 6//1
f 79//1 5//1 78//1
f 80//1 5//1 79//1
f 80//1 4//1 5//1
f 81//1 4//1 80//1
f 81//1 3//1 4//1
f 82//1 3//1 81//1
f 82//1 2//1 3//1
f 83//1 2//1 82//1
f 84//1 2//1 83//1
f 84//1 1//1 2//1
f 84//1 89//1 1//1
f 85//1 89//1 84//1
f 86//1 89//1 85//1
f 87//1 89//1 86//1
f 88//1 89//1 87//1
f 115//2 114//2 116//2
f 116//3 114//3 117//3
f 117//4 114//4 118//4
f 114//4 113//4 118//4
f 118//4 113//4 119//4
f 113//4 112//4 119//4
f 119//4 112//4 120//4
f 120//4 112//4 121//4
f 112//4 111//4 121//4
f 121//5 111//5 122//5
f 122//6 111//6 123//6
f 111//7 110//7 123//7
f 123//8 110//8 124//8
f 124//9 110//9 125//9
f 110//10 109//10 125//10
f 125//11 109//11 126//11
f 126//4 109//4 127//4
f 109//4 108//4 127//4
f 127//4 129//4 128//4
f 127//4 130//4 129//4
f 127//4 131//4 130//4
f 127//4 132//4 131//4
f 127//12 133//12 132//12
f 127//13 134//13 133//13
f 127//4 135//4 134//4
f 127//4 136//4 135//4
f 127//4 137//4 136//4
f 127//4 138//4 137//4
f 127//4 139//4 138//4
f 127//4 108//4 139//4
f 108//4 140//4 139//4
f 108//4 107//4 140//4
f 140//4 107//4 141//4
f 141//4 107//4 142//4
f 142//14 107//14 143//14
f 107//15 106//15 143//15
f 143//16 106//16 144//16
f 144//17 106//17 145//17
f 145//18 106//18 146//18
f 106//19 105//19 146//19
f 146//20 105//20 147//20
f 147//4 105//4 148//4
f 105//4 104//4 148//4
f 148//4 104//4 149//4
f 149//4 104//4 150//4
f 104//4 103//4 150//4
f 150//21 103//21 151//21
f 151//22 103//22 152//22
f 103//4 102//4 152//4
f 152//23 102//23 153//23
f 153//24 102//24 154//24
f 102//4 101//4 154//4
f 154//4 101//4 155//4
f 155//4 101//4 156//4
f 101//4 100//4 156//4
f 156//4 100//4 157//4
f 157//4 100//4 158//4
f 100//4 99//4 158//4
f 158//4 99//4 159//4
f 159//4 99//4 160//4
f 160//4 99//4 161//4
f 99//15 98//15 161//15
f 161//25 98//25 162//25
f 162//25 98//25 163//25
f 98//26 97//26 163//26
f 163//4 97//4 164//4
f 164//4 97//4 165//4
f 97//4 96//4 165//4
f 165//4 96//4 166//4
f 96//15 95//15 166//15
f 166//15 95//15 167//15
f 95//27 94//27 167//27
f 167//19 94//19 168//19
f 168//4 94//4 169//4
f 94//4 93//4 169//4
f 169//4 93//4 170//4
f 93//4 92//4 170//4
f 170//4 92//4 171//4
f 92//4 91//4 171//4
f 171//28 91//28 172//28
f 172//19 91//19 173//19
f 91//4 90//4 173//4
f 90//4 178//4 173//4
f 173//4 178//4 174//4
f 174//15 178//15 175//15
f 175//19 178//19 176//19
f 176//4 178//4 177//4
f 27//29 26//29 115//29 116//29
f 14//30 13//30 102//30 103//30
f 68//31 67//31 156//31 157//31
f 64//32 63//32 152//32 153//32
f 16//33 15//33 104//33 105//33
f 53//34 52//34 141//34 142//34
f 38//35 37//35 126//35 127//35
f 31//36 30//36 119//36 120//36
f 51//37 50//37 139//37 140//37
f 22//38 21//38 110//38 111//38
f 40//39 39//39 128//39 129//39
f 79//40 78//40 167//40 168//40
f 45//41 44//41 133//41 134//41
f 24//42 23//42 112//42 113//42
f 82//43 81//43 170//43 171//43
f 6//44 5//44 94//44 95//44
f 73//45 72//45 161//45 162//45
f 43//46 42//46 131//46 132//46
f 36//47 35//47 124//47 125//47
f 33//48 32//48 121//48 122//48
f 8//49 7//49 96//49 97//49
f 75//50 74//50 163//50 164//50
f 61//51 60//51 149//51 150//51
f 87//52 86//52 175//52 176//52
f 66//53 65//53 154//53 155//53
f 20//54 19//54 108//54 109//54
f 77//55 76//55 165//55 166//55
f 59//56 58//56 147//56 148//56
f 47//57 46//57 135//57 136//57
f 13//58 12//58 101//58 102//58
f 4//59 3//59 92//59 93//59
f 71//60 70//60 159//60 160//60
f 11//61 10//61 99//61 100//61
f 34//62 33//62 122//62 123//62
f 63//63 62//63 151//63 152//63
f 85//64 84//64 173//64 174//64
f 18//65 17//65 106//65 107//65
f 49//66 48//66 137//66 138//66
f 28//67 27//67 116//67 117//67
f 15//68 14//68 103//68 104//68
f 54//69 53//69 142//69 143//69
f 2//70 1//70 90//70 91//70
f 69//71 68//71 157//71 158//71
f 39//72 38//72 127//72 128//72
f 76//73 75//73 164//73 165//73
f 56//74 55//74 144//74 145//74
f 65//75 64//75 153//75 154//75
f 23//76 22//76 111//76 112//76
f 26//77 25//77 114//77 115//77
f 17//78 16//78 105//78 106//78
f 52//79 51//79 140//79 141//79
f 41//80 40//80 129//80 130//80
f 7//81 6//81 95//81 96//81
f 81//82 80//82 169//82 170//82
f 30//83 29//83 118//83 119//83
f 44//84 43//84 132//84 133//84
f 25//85 24//85 113//85 114//85
f 83//86 82//86 171//86 172//86
f 37//87 36//87 125//87 126//87
f 32//88 31//88 120//88 121//88
f 1//89 89//89 178//89 90//89
f 74//90 73//90 162//90 163//90
f 50//91 49//91 138//91 139//91
f 35//92 34//92 123//92 124//92
f 80//93 79//93 168//93 169//93
f 9//94 8//94 97//94 98//94
f 60//95 59//95 148//95 149//95
f 67//96 66//96 155//96 156//96
f 21//97 20//97 109//97 110//97
f 12//98 11//98 100//98 101//98
f 78//99 77//99 166//99 167//99
f 19//100 18//100 107//100 108//100
f 42//101 41//101 130//101 131//101
f 89//102 88//102 177//102 178//102
f 55//103 54//103 143//103 144//103
f 5//104 4//104 93//104 94//104
f 88//72 87//72 176//72 177//72
f 3//105 2//105 91//105 92//105
f 58//106 57//106 146//106 147//106
f 86//107 85//107 174//107 175//107
f 46//108 45//108 134//108 135//108
f 10//109 9//109 98//109 99//109
f 72//110 71//110 160//110 161//110
f 84//111 83//111 172//111 173//111
f 48//112 47//112 136//112 137//112
f 29//113 28//113 117//113 118//113
f 57//114 56//114 145//114 146//114
f 70//115 69//115 158//115 159//115
f 62//116 61//116 150//116 151//116
