# Blender v2.77 (sub 0) OBJ File: ''
# www.blender.org
mtllib 7.mtl
o Text
v 0.247374 0.682000 0.000000
v -0.193626 0.682000 0.000000
v -0.193626 0.589000 0.000000
v 0.101374 0.589000 0.000000
v -0.148626 0.029000 0.000000
v -0.061626 -0.009000 -0.000000
v 0.247374 0.682000 -0.264000
v -0.193626 0.682000 -0.264000
v -0.193626 0.589000 -0.263992
v 0.101374 0.589000 -0.264000
v -0.148626 0.029000 -0.264000
v -0.061626 -0.009000 -0.263992
vn 0.0000 -0.0000 1.0000
vn 0.0000 -0.0001 -1.0000
vn -0.0000 0.0000 -1.0000
vn 0.0001 -0.0000 -1.0000
vn -0.4003 -0.9164 -0.0000
vn 0.0000 -1.0000 0.0000
vn 0.0000 1.0000 0.0000
vn -1.0000 0.0000 0.0000
vn -0.9131 0.4077 0.0000
vn 0.9129 -0.4082 0.0000
usemtl Material.001
s off
f 3//1 1//1 2//1
f 3//1 4//1 1//1
f 4//1 6//1 1//1
f 5//1 6//1 4//1
f 8//2 7//2 9//2
f 7//3 10//3 9//3
f 7//3 12//3 10//3
f 10//4 12//4 11//4
f 6//5 5//5 11//5 12//5
f 4//6 3//6 9//6 10//6
f 2//7 1//7 7//7 8//7
f 3//8 2//8 8//8 9//8
f 5//9 4//9 10//9 11//9
f 1//10 6//10 12//10 7//10
